<svg width="54" height="54" viewBox="0 0 54 54" fill="none" xmlns="http://www.w3.org/2000/svg">
<path d="M44 0H10C4.47715 0 0 4.47715 0 10V44C0 49.5228 4.47715 54 10 54H44C49.5228 54 54 49.5228 54 44V10C54 4.47715 49.5228 0 44 0Z" fill="#1C1C1C"/>
<path d="M20.8756 29.2949L20.1096 32.1529L17.3096 32.2119C16.4629 30.6351 16.013 28.8757 15.9989 27.086C15.9848 25.2962 16.4068 23.53 17.2286 21.9399L19.7206 22.3969L20.8136 24.8729C20.3227 26.3091 20.3446 27.8711 20.8756 29.2929V29.2949Z" fill="#FBBB00"/>
<path d="M37.8077 24.9448C38.1806 26.9061 38.0126 28.932 37.3219 30.8051C36.6312 32.6783 35.4437 34.3282 33.8867 35.5778L30.7477 35.4178L30.3037 32.6448C31.5999 31.8851 32.5957 30.7031 33.1247 29.2968H27.2427V24.9448H37.8087H37.8077Z" fill="#518EF8"/>
<path d="M33.8855 35.5779C32.627 36.5887 31.1614 37.3101 29.5928 37.6909C28.0242 38.0717 26.391 38.1026 24.8091 37.7815C23.2272 37.4603 21.7354 36.795 20.4395 35.8326C19.1435 34.8702 18.0753 33.6344 17.3105 32.2129L20.8755 29.2949C21.2102 30.1871 21.7357 30.9954 22.4154 31.6633C23.095 32.3312 23.9123 32.8425 24.8102 33.1616C25.7081 33.4807 26.6648 33.5997 27.6135 33.5105C28.5622 33.4213 29.4799 33.1258 30.3025 32.6449L33.8855 35.5779Z" fill="#28B446"/>
<path d="M34.0205 18.5319L30.4575 21.4499C29.6227 20.9299 28.6814 20.6048 27.7036 20.4989C26.7258 20.3929 25.7368 20.5088 24.81 20.838C23.8832 21.1671 23.0425 21.701 22.3506 22.3999C21.6587 23.0989 21.1333 23.9448 20.8135 24.8749L17.2305 21.9409C17.9862 20.4815 19.0592 19.21 20.3708 18.2199C21.6824 17.2297 23.1992 16.546 24.8098 16.219C26.4203 15.892 28.0837 15.93 29.6776 16.3303C31.2715 16.7305 32.7555 17.4828 34.0205 18.5319Z" fill="#F14336"/>
</svg>
