<svg width="54" height="54" viewBox="0 0 54 54" fill="none" xmlns="http://www.w3.org/2000/svg">
<path d="M44 0H10C4.47715 0 0 4.47715 0 10V44C0 49.5228 4.47715 54 10 54H44C49.5228 54 54 49.5228 54 44V10C54 4.47715 49.5228 0 44 0Z" fill="#1C1C1C"/>
<path d="M38 19.6905C37.2119 20.0926 36.3592 20.3528 35.481 20.4595C36.3823 19.8025 37.0461 18.8709 37.373 17.8045C36.5188 18.3663 35.5523 18.7349 34.541 18.8845C34.1328 18.4138 33.6289 18.0356 33.063 17.775C32.497 17.5145 31.882 17.3776 31.259 17.3735C30.0095 17.4215 28.8299 17.9629 27.9791 18.8792C27.1282 19.7955 26.6754 21.0119 26.72 22.2615C26.7206 22.6276 26.7598 22.9927 26.837 23.3505C24.9601 23.265 23.1251 22.7661 21.4633 21.8895C19.8014 21.013 18.3535 19.7803 17.223 18.2795C16.6534 19.3453 16.479 20.5781 16.7309 21.76C16.9827 22.9419 17.6444 23.9966 18.599 24.7375C17.8924 24.8155 17.1829 24.6181 16.618 24.1865C16.5601 25.2642 16.8771 26.3287 17.5151 27.1992C18.1531 28.0697 19.0729 28.6924 20.118 28.9615C19.5167 29.1954 18.8601 29.2486 18.229 29.1145C18.4551 30.0321 18.9726 30.8515 19.7039 31.4499C20.4352 32.0484 21.3409 32.3935 22.285 32.4335C21.4797 33.2551 20.4872 33.8691 19.3925 34.2228C18.2979 34.5765 17.1338 34.6595 16 34.4646C18.1039 35.8649 20.5727 36.6167 23.1 36.6265C30.422 36.6265 36.109 30.2365 35.8 22.3525C35.8 22.3435 35.8 22.3345 35.8 22.3255C35.8 22.3165 35.8 22.2835 35.8 22.2645C35.8 22.2455 35.8 22.2155 35.8 22.1905C36.6969 21.5168 37.4458 20.6659 38 19.6905Z" fill="#38A1F3"/>
</svg>
